<?xml version="1.0" standalone="no"?>
<!DOCTYPE svg PUBLIC "-//W3C//DTD SVG 20010904//EN"
 "http://www.w3.org/TR/2001/REC-SVG-20010904/DTD/svg10.dtd">
<svg version="1.0" xmlns="http://www.w3.org/2000/svg"
 width="175.000000pt" height="175.000000pt" viewBox="0 0 175.000000 175.000000"
 preserveAspectRatio="xMidYMid meet">
<metadata>
Created by potrace 1.11, written by Peter Selinger 2001-2013
</metadata>
<g transform="translate(0.000000,175.000000) scale(0.100000,-0.100000)"
fill="#000000" stroke="none">
<path d="M834 1624 c-226 -350 -471 -752 -492 -809 -38 -102 -45 -263 -17
-363 45 -155 162 -300 297 -367 100 -49 167 -65 273 -65 163 0 301 56 413 169
116 116 173 251 173 413 1 160 -20 213 -186 484 -147 238 -375 597 -390 613
-11 11 -23 -1 -71 -75z"/>
</g>
</svg>
